#Comment line ignore any data following # character 
#Hierarchical Translation and Rotation (.htr) file 
[Header]	
#Header keywords are followed by a single value 
FileType HTR		#Single word string
DataType HTRS		#Translation followed by rotation and scale data
FileVersion 1		#integer
NumSegments 84		#integer
NumFrames 2		#integer
DataFrameRate 30		#integer, data frame rate in this file
EulerRotationOrder ZYX
CalibrationUnits mm
RotationUnits Degrees
GlobalAxisofGravity Y
BoneLengthAxis Y
ScaleFactor 1.00
[SegmentNames&Hierarchy]
#CHILD	PARENT
MASTER GLOBAL
root MASTER
chest root
L_mid_tent01 root
R_mid_tent01 root
spine01 root
Bip01_Neck chest
L_humerus chest
R_humerus chest
weapon_bone chest
Bip01_Head Bip01_Neck
eye_left_bone Bip01_Head
eye_right_bone Bip01_Head
L_forearm L_humerus
L_front_hand L_forearm
L_weapon_bone L_forearm
L_front_hand01_01 L_front_hand
L_front_hand02_01 L_front_hand
L_front_hand03_01 L_front_hand
L_front_hand01_02 L_front_hand01_01
L_front_hand02_02 L_front_hand02_01
L_front_hand03_02 L_front_hand03_01
R_forearm R_humerus
R_front_hand R_forearm
R_weapon_bone R_forearm
R_front_hand01_01 R_front_hand
R_front_hand02_01 R_front_hand
R_front_hand03_01 R_front_hand
R_front_hand01_02 R_front_hand01_01
R_front_hand02_02 R_front_hand02_01
R_front_hand03_02 R_front_hand03_01
null_rope01_connect L_mid_tent01
Rope1_Seg01 null_rope01_connect
Rope1_Seg02 Rope1_Seg01
Rope1_Seg03 Rope1_Seg02
Rope1_Seg04 Rope1_Seg03
Rope1_Seg05 Rope1_Seg04
Rope1_Seg06 Rope1_Seg05
Rope1_Seg07 Rope1_Seg06
Rope1_Seg09 Rope1_Seg07
L_mid_hand01 Rope1_Seg09
L_mid_hand02 Rope1_Seg09
L_mid_hand03 Rope1_Seg09
null_rope02_connect R_mid_tent01
Rope2_Seg01 null_rope02_connect
Rope2_Seg02 Rope2_Seg01
Rope2_Seg03 Rope2_Seg02
Rope2_Seg04 Rope2_Seg03
Rope2_Seg05 Rope2_Seg04
Rope2_Seg06 Rope2_Seg05
Rope2_Seg07 Rope2_Seg06
Rope2_Seg09 Rope2_Seg07
R_mid_hand01 Rope2_Seg09
R_mid_hand02 Rope2_Seg09
R_mid_hand03 Rope2_Seg09
spine02 spine01
spine03 spine02
pelvis spine03
null_rope03_connect pelvis
null_rope04_connect pelvis
Rope3_Seg01 null_rope03_connect
Rope3_Seg02 Rope3_Seg01
Rope3_Seg03 Rope3_Seg02
Rope3_Seg04 Rope3_Seg03
Rope3_Seg05 Rope3_Seg04
Rope3_Seg06 Rope3_Seg05
Rope3_Seg07 Rope3_Seg06
Rope3_Seg08 Rope3_Seg07
Rope3_Seg09 Rope3_Seg08
R_rear_hand01 Rope3_Seg09
R_rear_hand02 Rope3_Seg09
R_rear_hand03 Rope3_Seg09
Rope4_Seg01 null_rope04_connect
Rope4_Seg02 Rope4_Seg01
Rope4_Seg03 Rope4_Seg02
Rope4_Seg04 Rope4_Seg03
Rope4_Seg05 Rope4_Seg04
Rope4_Seg06 Rope4_Seg05
Rope4_Seg07 Rope4_Seg06
Rope4_Seg08 Rope4_Seg07
Rope4_Seg09 Rope4_Seg08
L_rear_hand01 Rope4_Seg09
L_rear_hand02 Rope4_Seg09
L_rear_hand03 Rope4_Seg09
[BasePosition]
#SegmentName Tx, Ty, Tz, Rx, Ry, Rz, BoneLength
MASTER 0.000000 0.000000 0.000000 -90.000000 0.000000 0.000000 10.000000 
root 0.000000 0.000000 0.000000 0.000000 0.000000 0.000000 10.000000 
chest 0.000000 0.000000 0.000000 0.000000 0.000000 0.000000 10.000000 
L_mid_tent01 0.000000 0.000000 0.000000 0.000000 0.000000 0.000000 10.000000 
R_mid_tent01 0.000000 0.000000 0.000000 0.000000 0.000000 0.000000 10.000000 
spine01 0.000000 0.000000 0.000000 0.000000 0.000000 0.000000 10.000000 
Bip01_Neck 0.000000 0.000000 0.000000 0.000000 0.000000 0.000000 10.000000 
L_humerus 0.000000 0.000000 0.000000 0.000000 0.000000 0.000000 10.000000 
R_humerus 0.000000 0.000000 0.000000 0.000000 0.000000 0.000000 10.000000 
weapon_bone 0.000000 0.000000 0.000000 0.000000 0.000000 0.000000 10.000000 
Bip01_Head 0.000000 0.000000 0.000000 0.000000 0.000000 0.000000 10.000000 
eye_left_bone 0.000000 0.000000 0.000000 0.000000 0.000000 0.000000 10.000000 
eye_right_bone 0.000000 0.000000 0.000000 0.000000 0.000000 0.000000 10.000000 
L_forearm 0.000000 0.000000 0.000000 0.000000 0.000000 0.000000 10.000000 
L_front_hand 0.000000 0.000000 0.000000 0.000000 0.000000 0.000000 10.000000 
L_weapon_bone 0.000000 0.000000 0.000000 0.000000 0.000000 0.000000 10.000000 
L_front_hand01_01 0.000000 0.000000 0.000000 0.000000 0.000000 0.000000 10.000000 
L_front_hand02_01 0.000000 0.000000 0.000000 0.000000 0.000000 0.000000 10.000000 
L_front_hand03_01 0.000000 0.000000 0.000000 0.000000 0.000000 0.000000 10.000000 
L_front_hand01_02 0.000000 0.000000 0.000000 0.000000 0.000000 0.000000 10.000000 
L_front_hand02_02 0.000000 0.000000 0.000000 0.000000 0.000000 0.000000 10.000000 
L_front_hand03_02 0.000000 0.000000 0.000000 0.000000 0.000000 0.000000 10.000000 
R_forearm 0.000000 0.000000 0.000000 0.000000 0.000000 0.000000 10.000000 
R_front_hand 0.000000 0.000000 0.000000 0.000000 0.000000 0.000000 10.000000 
R_weapon_bone 0.000000 0.000000 0.000000 0.000000 0.000000 0.000000 10.000000 
R_front_hand01_01 0.000000 0.000000 0.000000 0.000000 0.000000 0.000000 10.000000 
R_front_hand02_01 0.000000 0.000000 0.000000 0.000000 0.000000 0.000000 10.000000 
R_front_hand03_01 0.000000 0.000000 0.000000 0.000000 0.000000 0.000000 10.000000 
R_front_hand01_02 0.000000 0.000000 0.000000 0.000000 0.000000 0.000000 10.000000 
R_front_hand02_02 0.000000 0.000000 0.000000 0.000000 0.000000 0.000000 10.000000 
R_front_hand03_02 0.000000 0.000000 0.000000 0.000000 0.000000 0.000000 10.000000 
null_rope01_connect 0.000000 0.000000 0.000000 0.000000 0.000000 0.000000 10.000000 
Rope1_Seg01 0.000000 0.000000 0.000000 0.000000 0.000000 0.000000 10.000000 
Rope1_Seg02 0.000000 0.000000 0.000000 0.000000 0.000000 0.000000 10.000000 
Rope1_Seg03 0.000000 0.000000 0.000000 0.000000 0.000000 0.000000 10.000000 
Rope1_Seg04 0.000000 0.000000 0.000000 0.000000 0.000000 0.000000 10.000000 
Rope1_Seg05 0.000000 0.000000 0.000000 0.000000 0.000000 0.000000 10.000000 
Rope1_Seg06 0.000000 0.000000 0.000000 0.000000 0.000000 0.000000 10.000000 
Rope1_Seg07 0.000000 0.000000 0.000000 0.000000 0.000000 0.000000 10.000000 
Rope1_Seg09 0.000000 0.000000 0.000000 0.000000 0.000000 0.000000 10.000000 
L_mid_hand01 0.000000 0.000000 0.000000 0.000000 0.000000 0.000000 10.000000 
L_mid_hand02 0.000000 0.000000 0.000000 0.000000 0.000000 0.000000 10.000000 
L_mid_hand03 0.000000 0.000000 0.000000 0.000000 0.000000 0.000000 10.000000 
null_rope02_connect 0.000000 0.000000 0.000000 0.000000 0.000000 0.000000 10.000000 
Rope2_Seg01 0.000000 0.000000 0.000000 0.000000 0.000000 0.000000 10.000000 
Rope2_Seg02 0.000000 0.000000 0.000000 0.000000 0.000000 0.000000 10.000000 
Rope2_Seg03 0.000000 0.000000 0.000000 0.000000 0.000000 0.000000 10.000000 
Rope2_Seg04 0.000000 0.000000 0.000000 0.000000 0.000000 0.000000 10.000000 
Rope2_Seg05 0.000000 0.000000 0.000000 0.000000 0.000000 0.000000 10.000000 
Rope2_Seg06 0.000000 0.000000 0.000000 0.000000 0.000000 0.000000 10.000000 
Rope2_Seg07 0.000000 0.000000 0.000000 0.000000 0.000000 0.000000 10.000000 
Rope2_Seg09 0.000000 0.000000 0.000000 0.000000 0.000000 0.000000 10.000000 
R_mid_hand01 0.000000 0.000000 0.000000 0.000000 0.000000 0.000000 10.000000 
R_mid_hand02 0.000000 0.000000 0.000000 0.000000 0.000000 0.000000 10.000000 
R_mid_hand03 0.000000 0.000000 0.000000 0.000000 0.000000 0.000000 10.000000 
spine02 0.000000 0.000000 0.000000 0.000000 0.000000 0.000000 10.000000 
spine03 0.000000 0.000000 0.000000 0.000000 0.000000 0.000000 10.000000 
pelvis 0.000000 0.000000 0.000000 0.000000 0.000000 0.000000 10.000000 
null_rope03_connect 0.000000 0.000000 0.000000 0.000000 0.000000 0.000000 10.000000 
null_rope04_connect 0.000000 0.000000 0.000000 0.000000 0.000000 0.000000 10.000000 
Rope3_Seg01 0.000000 0.000000 0.000000 0.000000 0.000000 0.000000 10.000000 
Rope3_Seg02 0.000000 0.000000 0.000000 0.000000 0.000000 0.000000 10.000000 
Rope3_Seg03 0.000000 0.000000 0.000000 0.000000 0.000000 0.000000 10.000000 
Rope3_Seg04 0.000000 0.000000 0.000000 0.000000 0.000000 0.000000 10.000000 
Rope3_Seg05 0.000000 0.000000 0.000000 0.000000 0.000000 0.000000 10.000000 
Rope3_Seg06 0.000000 0.000000 0.000000 0.000000 0.000000 0.000000 10.000000 
Rope3_Seg07 0.000000 0.000000 0.000000 0.000000 0.000000 0.000000 10.000000 
Rope3_Seg08 0.000000 0.000000 0.000000 0.000000 0.000000 0.000000 10.000000 
Rope3_Seg09 0.000000 0.000000 0.000000 0.000000 0.000000 0.000000 10.000000 
R_rear_hand01 0.000000 0.000000 0.000000 0.000000 0.000000 0.000000 10.000000 
R_rear_hand02 0.000000 0.000000 0.000000 0.000000 0.000000 0.000000 10.000000 
R_rear_hand03 0.000000 0.000000 0.000000 0.000000 0.000000 0.000000 10.000000 
Rope4_Seg01 0.000000 0.000000 0.000000 0.000000 0.000000 0.000000 10.000000 
Rope4_Seg02 0.000000 0.000000 0.000000 0.000000 0.000000 0.000000 10.000000 
Rope4_Seg03 0.000000 0.000000 0.000000 0.000000 0.000000 0.000000 10.000000 
Rope4_Seg04 0.000000 0.000000 0.000000 0.000000 0.000000 0.000000 10.000000 
Rope4_Seg05 0.000000 0.000000 0.000000 0.000000 0.000000 0.000000 10.000000 
Rope4_Seg06 0.000000 0.000000 0.000000 0.000000 0.000000 0.000000 10.000000 
Rope4_Seg07 0.000000 0.000000 0.000000 0.000000 0.000000 0.000000 10.000000 
Rope4_Seg08 0.000000 0.000000 0.000000 0.000000 0.000000 0.000000 10.000000 
Rope4_Seg09 0.000000 0.000000 0.000000 0.000000 0.000000 0.000000 10.000000 
L_rear_hand01 0.000000 0.000000 0.000000 0.000000 0.000000 0.000000 10.000000 
L_rear_hand02 0.000000 0.000000 0.000000 0.000000 0.000000 0.000000 10.000000 
L_rear_hand03 0.000000 0.000000 0.000000 0.000000 0.000000 0.000000 10.000000 
#Beginning of Data. Separated by tabs
#Fr	Tx	Ty	Tz	Rx	Ry	Rz	SF
[MASTER]
21 0.000000 0.000000 0.000000 0.001660 0.001660 0.001660 0.000000
22 0.000000 0.000000 0.000000 0.001660 0.001660 0.001660 0.000000
[root]
21 -26.574432 -1.157450 1437.076538 -91.740158 13.400836 -90.225014 1437.322754
22 -28.970076 1.154199 1439.176270 -91.740158 13.400836 -90.225014 1439.468384
[chest]
21 -84.512650 -34.090519 0.000000 -2.117274 0.462005 -179.268204 91.129311
22 -84.512650 -34.090519 0.000000 -2.117274 0.462005 -179.268204 91.129311
[L_mid_tent01]
21 27.299511 22.177458 -249.918259 -8.290147 27.433422 52.549614 252.381134
22 27.299511 22.177458 -249.918259 -7.935876 26.687057 53.655312 252.381134
[R_mid_tent01]
21 23.228794 24.509907 226.238495 -175.496780 -28.251364 52.178806 228.744751
22 23.228794 24.509907 226.238495 -175.555786 -26.606384 52.794083 228.744751
[spine01]
21 -0.361383 -0.195265 0.000000 -0.000001 -0.000007 22.052340 0.410763
22 -0.361383 -0.195265 0.000000 -0.000001 -0.000007 22.052340 0.410763
[Bip01_Neck]
21 165.484543 71.581718 0.000119 175.896118 1.177290 24.871183 180.302734
22 165.484543 71.581718 0.000119 175.896118 1.177290 24.871183 180.302734
[L_humerus]
21 -13.983130 -135.272980 -120.471481 175.474304 58.687801 -118.474754 181.680161
22 -13.983130 -135.272980 -120.471481 175.474304 58.687801 -118.474754 181.680161
[R_humerus]
21 -13.983309 -135.273102 125.287651 174.588181 -51.786880 -99.934280 184.909012
22 -13.983309 -135.273102 125.287651 174.588181 -51.786880 -99.934280 184.909012
[weapon_bone]
21 235.964890 -300.705902 0.000000 0.000000 -89.951546 -128.212341 382.234833
22 235.964890 -300.705902 0.000000 0.000000 -89.951546 -128.212341 382.234833
[Bip01_Head]
21 163.817291 272.852325 22.822264 1.693472 4.424703 -42.711670 319.069519
22 163.817291 272.852325 22.822264 1.693472 4.424703 -42.711670 319.069519
[eye_left_bone]
21 -24.626970 125.451866 -64.772606 0.000000 -90.000000 -99.840431 143.318359
22 -24.626970 125.451866 -64.772606 0.000000 -90.000000 -99.840431 143.318359
[eye_right_bone]
21 -24.626970 125.451866 64.327362 0.000000 -89.965736 80.156380 143.117676
22 -24.626970 125.451866 64.327362 0.000000 -89.965736 80.156380 143.117676
[L_forearm]
21 322.776093 0.000000 -0.000119 0.000442 -0.002305 -111.718391 322.776093
22 322.776093 0.000000 -0.000119 0.000442 -0.002305 -111.718391 322.776093
[L_front_hand]
21 241.149185 -0.042021 -3.300071 -179.659958 -2.242151 -0.019832 241.171753
22 241.149185 -0.042021 -3.300071 -179.659958 -2.242151 -0.019832 241.171753
[L_weapon_bone]
21 156.183838 0.000000 0.000000 0.000014 0.000007 0.000001 156.183838
22 156.183838 0.000000 0.000000 0.000014 0.000007 0.000001 156.183838
[L_front_hand01_01]
21 86.095154 20.947098 -0.655860 -0.366594 -0.477154 75.385574 88.609184
22 86.095154 20.947098 -0.655860 -0.366594 -0.477154 75.385574 88.609184
[L_front_hand02_01]
21 86.935165 -11.437475 24.513514 154.399796 -59.883835 -61.369587 91.046425
22 86.935165 -11.437475 24.513514 154.399796 -59.883835 -61.369587 91.046425
[L_front_hand03_01]
21 86.637497 -14.123976 -20.424902 -153.913849 58.118122 -62.702866 90.126129
22 86.637497 -14.123976 -20.424902 -153.913849 58.118122 -62.702866 90.126129
[L_front_hand01_02]
21 71.020905 -0.000179 0.000030 0.000334 -0.002323 -106.379684 71.020905
22 71.020905 -0.000179 0.000030 0.000334 -0.002323 -106.379684 71.020905
[L_front_hand02_02]
21 71.020927 -0.000119 0.000060 0.000334 -0.002323 -106.379684 71.020927
22 71.020927 -0.000119 0.000060 0.000334 -0.002323 -106.379684 71.020927
[L_front_hand03_02]
21 71.020905 -0.000060 0.000060 0.000334 -0.002323 -106.379684 71.020905
22 71.020905 -0.000060 0.000060 0.000334 -0.002323 -106.379684 71.020905
[R_forearm]
21 322.776428 -0.000060 0.000030 0.211305 0.032976 -99.623016 322.776428
22 322.776428 -0.000060 0.000030 0.211305 0.032976 -99.623016 322.776428
[R_front_hand]
21 238.847015 -0.006795 2.210259 -0.270529 1.703932 2.322530 238.857239
22 238.847015 -0.006795 2.210259 -0.270529 1.703932 2.322530 238.857239
[R_weapon_bone]
21 155.664093 0.002503 -0.000030 0.003487 0.001180 -90.988930 155.664078
22 155.664093 0.002503 -0.000030 0.003487 0.001180 -90.988930 155.664078
[R_front_hand01_01]
21 87.624611 14.231146 22.918642 -154.633499 -59.950619 61.746044 91.683487
22 87.624611 14.231146 22.918642 -154.633499 -59.950619 61.746044 91.683487
[R_front_hand02_01]
21 89.356956 14.367283 -19.491137 154.602661 58.302849 63.744389 92.579636
22 89.356956 14.367283 -19.491137 154.602661 58.302849 63.744389 92.579636
[R_front_hand03_01]
21 87.286232 -22.307278 -0.143439 0.162155 -0.423168 -75.767921 90.091743
22 87.286232 -22.307278 -0.143439 0.162155 -0.423168 -75.767921 90.091743
[R_front_hand01_02]
21 71.020905 0.000060 0.000119 0.002323 -0.000334 106.381714 71.020905
22 71.020905 0.000060 0.000119 0.002323 -0.000334 106.381714 71.020905
[R_front_hand02_02]
21 71.020844 -0.000030 -0.000119 0.002323 -0.000334 106.381714 71.020836
22 71.020844 -0.000030 -0.000119 0.002323 -0.000334 106.381714 71.020836
[R_front_hand03_02]
21 71.020905 0.000000 0.000030 0.002323 -0.000334 106.381714 71.020905
22 71.020905 0.000000 0.000030 0.002323 -0.000334 106.381714 71.020905
[null_rope01_connect]
21 328.732483 0.000000 -0.000238 -174.149124 -59.775139 -163.739227 328.732483
22 328.732483 0.000000 -0.000238 -174.919296 -60.574448 -163.941864 328.732483
[Rope1_Seg01]
21 0.000000 0.000000 0.000000 -139.940857 51.013588 -124.112915 0.000000
22 0.000000 0.000000 0.000000 -141.882233 50.253876 -124.945747 0.000000
[Rope1_Seg02]
21 139.999863 -0.000179 0.000000 34.017490 -7.998058 -14.053041 139.999863
22 139.999863 -0.000179 0.000000 33.696297 -7.323550 -13.632473 139.999863
[Rope1_Seg03]
21 139.999924 0.000060 -0.000060 22.460245 -11.628634 -6.278221 139.999924
22 139.999924 0.000060 -0.000060 23.063864 -11.037355 -6.359567 139.999924
[Rope1_Seg04]
21 139.999924 -0.000060 -0.000119 14.133053 -11.523368 -2.869015 139.999924
22 139.999924 -0.000060 -0.000119 14.423794 -10.725172 -2.971608 139.999924
[Rope1_Seg05]
21 139.999832 0.000119 -0.000060 2.887029 -4.743490 1.337838 139.999832
22 139.999832 0.000119 -0.000060 3.419758 -5.081182 1.306028 139.999832
[Rope1_Seg06]
21 139.999954 0.000119 -0.000060 -2.129313 -0.115076 3.303596 139.999954
22 139.999954 0.000119 -0.000060 -1.484113 -1.318202 3.546097 139.999954
[Rope1_Seg07]
21 139.999985 0.000060 0.000000 -5.128444 2.745741 5.486644 139.999985
22 139.999985 0.000060 0.000000 -3.817365 0.595046 5.610539 139.999985
[Rope1_Seg09]
21 121.602913 0.000119 -0.000089 -89.793175 -1.359789 0.847147 121.602913
22 121.602913 0.000119 -0.000089 -89.793175 -1.359789 0.847147 121.602913
[L_mid_hand01]
21 103.859421 1.038730 8.195221 106.855484 -31.239275 -9.461397 104.187431
22 103.859421 1.038730 8.195221 106.855484 -31.239275 -9.461397 104.187431
[L_mid_hand02]
21 105.572853 -4.139662 -10.864139 -142.331345 25.752670 -28.774628 106.211075
22 105.572853 -4.139662 -10.864139 -142.331345 25.752670 -28.774628 106.211075
[L_mid_hand03]
21 104.641464 17.579376 -3.913581 -16.122810 9.734291 34.223598 106.179977
22 104.641464 17.579376 -3.913581 -16.122810 9.734291 34.223598 106.179977
[null_rope02_connect]
21 328.732849 0.000179 -0.000119 -163.840698 63.002090 -6.965674 328.732849
22 328.732849 0.000179 -0.000119 -164.828827 64.644547 -7.436984 328.732849
[Rope2_Seg01]
21 0.000000 0.000000 0.000000 179.712845 53.262272 -57.634441 0.000000
22 0.000000 0.000000 0.000000 -179.378494 53.277340 -57.050922 0.000000
[Rope2_Seg02]
21 139.999741 -0.000060 -0.000119 -13.952404 4.734995 9.643426 139.999756
22 139.999741 -0.000060 -0.000119 -13.313302 5.397533 8.352958 139.999756
[Rope2_Seg03]
21 140.000107 0.000030 0.000000 -19.124048 6.222653 15.072752 140.000107
22 140.000107 0.000030 0.000000 -19.199833 7.857152 12.124802 140.000107
[Rope2_Seg04]
21 139.999802 0.000000 -0.000060 -13.257286 -4.020127 18.009323 139.999802
22 139.999802 0.000000 -0.000060 -15.841058 -1.842598 17.290171 139.999802
[Rope2_Seg05]
21 139.999985 -0.000060 0.000119 3.934945 -17.654324 -0.474417 139.999985
22 139.999985 -0.000060 0.000119 2.770361 -21.651028 3.330692 139.999985
[Rope2_Seg06]
21 139.999893 -0.000030 -0.000119 0.435404 -7.804464 1.345148 139.999893
22 139.999893 -0.000030 -0.000119 0.086290 -9.097941 2.803184 139.999893
[Rope2_Seg07]
21 139.999893 0.000060 -0.000060 0.038360 -4.292789 1.133598 139.999893
22 139.999893 0.000060 -0.000060 -0.074189 -4.781631 1.816534 139.999893
[Rope2_Seg09]
21 121.338966 0.000089 -0.000060 33.793236 -1.359788 -0.847141 121.338966
22 121.338966 0.000089 -0.000060 33.793236 -1.359788 -0.847141 121.338966
[R_mid_hand01]
21 104.680779 11.144459 -10.335981 -41.523792 25.424656 28.595957 105.778534
22 104.680779 11.144459 -10.335981 -41.523792 25.424656 28.595957 105.778534
[R_mid_hand02]
21 104.070427 2.443552 8.231699 72.847389 -32.746803 10.013901 104.424065
22 104.070427 2.443552 8.231699 72.847389 -32.746803 10.013901 104.424065
[R_mid_hand03]
21 106.028137 -11.221827 -5.996406 -167.901306 10.259192 -37.009720 106.788818
22 106.028137 -11.221827 -5.996406 -167.901306 10.259192 -37.009720 106.788818
[spine02]
21 129.756927 0.001550 0.000119 0.360061 -4.044797 -12.915058 129.756927
22 129.756927 0.001550 0.000119 0.360061 -4.044797 -12.915058 129.756927
[spine03]
21 78.613846 0.087372 -4.898873 1.896495 3.831288 16.473045 78.766380
22 78.613846 0.087372 -4.898873 1.896495 3.831288 16.473045 78.766380
[pelvis]
21 169.435242 0.051022 0.000000 -0.060465 -0.180225 14.087930 169.435257
22 169.435242 0.051022 0.000000 -0.060465 -0.180225 14.087930 169.435257
[null_rope03_connect]
21 -1.257226 -2.466202 137.391083 -159.503860 -89.311867 -163.586563 137.418976
22 -1.257226 -2.466202 137.391083 -159.503860 -89.311867 -163.586563 137.418976
[null_rope04_connect]
21 -1.259640 -2.480268 -137.844437 -159.503860 -89.311867 -163.586563 137.872513
22 -1.259640 -2.480268 -137.844437 -159.503860 -89.311867 -163.586563 137.872513
[Rope3_Seg01]
21 0.000000 0.000000 0.000000 -146.251678 29.578407 -107.326210 0.000000
22 0.000000 0.000000 0.000000 -146.033783 28.081762 -109.007904 0.000000
[Rope3_Seg02]
21 139.999924 -0.000119 0.000060 0.878104 -3.752065 -7.668269 139.999924
22 139.999924 -0.000119 0.000060 0.466939 -4.766745 -7.591848 139.999924
[Rope3_Seg03]
21 139.999924 -0.000119 0.000119 1.028004 -5.630607 -11.024126 139.999924
22 139.999924 -0.000119 0.000119 0.753626 -6.916169 -10.846498 139.999924
[Rope3_Seg04]
21 139.999924 0.000119 0.000000 2.420416 -12.420353 -22.048178 139.999924
22 139.999924 0.000119 0.000000 2.569808 -14.035222 -20.799225 139.999924
[Rope3_Seg05]
21 139.999924 -0.000238 0.000060 -0.204427 3.561491 1.648023 139.999924
22 139.999924 -0.000238 0.000060 -0.226331 2.405874 0.214566 139.999924
[Rope3_Seg06]
21 139.999893 -0.000119 -0.000060 3.095609 14.866965 19.493437 139.999893
22 139.999893 -0.000119 -0.000060 2.670807 14.934939 16.783026 139.999893
[Rope3_Seg07]
21 139.999771 0.000060 -0.000119 1.505062 6.824864 7.712713 139.999771
22 139.999771 0.000060 -0.000119 1.539216 6.975217 6.813772 139.999771
[Rope3_Seg08]
21 139.999985 -0.000060 0.000000 1.191577 4.119054 4.440438 139.999985
22 139.999985 -0.000060 0.000000 1.280758 4.303303 3.990347 139.999985
[Rope3_Seg09]
21 90.185997 -0.000179 -0.000060 89.793228 -1.359877 -0.847183 90.185997
22 90.185997 -0.000179 -0.000060 89.793228 -1.359877 -0.847183 90.185997
[R_rear_hand01]
21 103.366196 -6.073594 -10.757982 -161.551193 16.666374 -30.088671 104.101845
22 103.366196 -6.073594 -10.757982 -161.551193 16.666374 -30.088671 104.101845
[R_rear_hand02]
21 100.509819 12.039542 -7.992327 -34.280552 19.289745 28.875523 101.543350
22 100.509819 12.039542 -7.992327 -34.280552 19.289745 28.875523 101.543350
[R_rear_hand03]
21 101.539970 5.215704 5.435467 83.366440 -30.933914 7.284830 101.819031
22 101.539970 5.215704 5.435467 83.366440 -30.933914 7.284830 101.819031
[Rope4_Seg01]
21 0.000010 0.000038 -0.000114 42.450714 21.716709 -116.411285 0.000121
22 0.000010 0.000038 -0.000114 41.379124 22.118687 -118.869858 0.000121
[Rope4_Seg02]
21 139.999985 0.000060 0.000119 0.586250 10.654276 5.731200 139.999985
22 139.999985 0.000060 0.000119 0.667340 10.386020 6.387442 139.999985
[Rope4_Seg03]
21 139.999924 0.000000 -0.000238 1.068093 15.023054 8.300960 139.999924
22 139.999924 0.000000 -0.000238 1.007762 15.054049 9.449324 139.999924
[Rope4_Seg04]
21 139.999985 0.000000 0.000119 1.947259 23.496889 14.324377 139.999985
22 139.999985 0.000000 0.000119 1.120134 24.101631 16.637074 139.999985
[Rope4_Seg05]
21 139.999802 -0.000060 -0.000119 1.565405 -1.344287 -2.148767 139.999802
22 139.999802 -0.000060 -0.000119 1.153414 0.075841 -0.981828 139.999802
[Rope4_Seg06]
21 139.999924 0.000000 0.000060 4.114107 -18.526350 -13.129285 139.999924
22 139.999924 0.000000 0.000060 5.049978 -16.912100 -13.639034 139.999924
[Rope4_Seg07]
21 139.999802 0.000000 0.000000 0.960562 -8.297756 -5.549638 139.999802
22 139.999802 0.000000 0.000000 1.166735 -7.770769 -5.676637 139.999802
[Rope4_Seg08]
21 139.999924 0.000000 0.000119 -1.185804 -4.552833 -3.010574 139.999924
22 139.999924 0.000000 0.000119 -1.103112 -4.253933 -3.046124 139.999924
[Rope4_Seg09]
21 90.185791 0.000060 0.000060 -135.617828 2.228885 0.850567 90.185791
22 90.185791 0.000060 0.000060 -135.617828 2.228885 0.850567 90.185791
[L_rear_hand01]
21 101.696655 -8.392275 -7.654577 -34.454281 -18.946800 151.655121 102.329041
22 101.696655 -8.392275 -7.654577 -34.454281 -18.946800 151.655121 102.329041
[L_rear_hand02]
21 102.726799 -1.568258 5.773216 83.407906 30.330435 172.796509 102.900848
22 102.726799 -1.568258 5.773216 83.407906 30.330435 172.796509 102.900848
[L_rear_hand03]
21 104.552910 9.721220 -10.420293 -161.379868 -16.473232 -150.512238 105.519653
22 104.552910 9.721220 -10.420293 -161.379868 -16.473232 -150.512238 105.519653
